<svg xmlns="http://www.w3.org/2000/svg" xmlns:xlink="http://www.w3.org/1999/xlink" width="200" zoomAndPan="magnify" viewBox="0 0 150 37.5" height="50" preserveAspectRatio="xMidYMid meet" version="1.0"><defs><g/><clipPath id="id1"><path d="M 4.6875 9 L 18 9 L 18 35.453125 L 4.6875 35.453125 Z M 4.6875 9 " clip-rule="nonzero"/></clipPath><clipPath id="id2"><path d="M 16 13 L 22 13 L 22 35.453125 L 16 35.453125 Z M 16 13 " clip-rule="nonzero"/></clipPath><clipPath id="id3"><path d="M 18 1.902344 L 30.6875 1.902344 L 30.6875 13 L 18 13 Z M 18 1.902344 " clip-rule="nonzero"/></clipPath><clipPath id="id4"><path d="M 25 8 L 30.6875 8 L 30.6875 31 L 25 31 Z M 25 8 " clip-rule="nonzero"/></clipPath></defs><g clip-path="url(#id1)"><path fill="#231f20" d="M 5.410156 28.023438 L 16.367188 34.257812 L 16.386719 17.019531 L 5.410156 10.863281 Z M 16.722656 35.214844 C 16.660156 35.214844 16.601562 35.199219 16.546875 35.167969 L 4.878906 28.53125 C 4.769531 28.46875 4.703125 28.351562 4.703125 28.226562 L 4.703125 10.261719 C 4.703125 10.136719 4.769531 10.019531 4.878906 9.957031 C 4.984375 9.894531 5.121094 9.894531 5.230469 9.957031 L 16.914062 16.507812 C 17.023438 16.570312 17.09375 16.6875 17.09375 16.816406 L 17.074219 34.863281 C 17.074219 34.988281 17.007812 35.105469 16.898438 35.167969 C 16.84375 35.199219 16.78125 35.214844 16.722656 35.214844 " fill-opacity="1" fill-rule="nonzero"/></g><path fill="#231f20" d="M 18.558594 17.390625 C 18.015625 17.390625 17.386719 17.3125 16.664062 17.15625 C 16.472656 17.117188 16.351562 16.929688 16.394531 16.742188 C 16.433594 16.550781 16.621094 16.429688 16.8125 16.472656 C 18.421875 16.816406 19.488281 16.75 20.082031 16.269531 C 20.527344 15.910156 20.75 15.269531 20.765625 14.320312 L 9.472656 7.84375 C 9.304688 7.746094 9.246094 7.53125 9.34375 7.363281 C 9.441406 7.195312 9.65625 7.136719 9.824219 7.234375 L 21.296875 13.816406 C 21.402344 13.875 21.472656 13.992188 21.472656 14.113281 C 21.488281 15.402344 21.179688 16.285156 20.527344 16.8125 C 20.050781 17.199219 19.410156 17.390625 18.558594 17.390625 " fill-opacity="1" fill-rule="nonzero"/><g clip-path="url(#id2)"><path fill="#231f20" d="M 18.636719 35.453125 C 18.070312 35.453125 17.414062 35.371094 16.648438 35.207031 C 16.457031 35.164062 16.335938 34.976562 16.375 34.789062 C 16.417969 34.597656 16.605469 34.480469 16.796875 34.519531 C 18.453125 34.875 19.542969 34.820312 20.121094 34.351562 C 20.566406 33.988281 20.777344 33.316406 20.765625 32.296875 L 20.765625 14.117188 C 20.765625 13.925781 20.925781 13.769531 21.121094 13.769531 C 21.3125 13.769531 21.472656 13.925781 21.472656 14.117188 L 21.472656 32.292969 C 21.488281 33.535156 21.191406 34.386719 20.566406 34.894531 C 20.109375 35.269531 19.476562 35.453125 18.636719 35.453125 " fill-opacity="1" fill-rule="nonzero"/></g><path fill="#231f20" d="M 18.917969 15.75 C 18.859375 15.75 18.800781 15.734375 18.746094 15.703125 L 8.070312 9.628906 C 7.898438 9.53125 7.839844 9.316406 7.9375 9.148438 C 8.035156 8.980469 8.25 8.921875 8.417969 9.019531 L 19.097656 15.097656 C 19.265625 15.191406 19.324219 15.40625 19.226562 15.574219 C 19.160156 15.6875 19.042969 15.75 18.917969 15.75 " fill-opacity="1" fill-rule="nonzero"/><path fill="#231f20" d="M 23.152344 14.769531 C 22.609375 14.769531 21.980469 14.691406 21.257812 14.535156 C 21.066406 14.492188 20.945312 14.308594 20.988281 14.117188 C 21.027344 13.929688 21.214844 13.808594 21.40625 13.847656 C 23.011719 14.195312 24.082031 14.128906 24.675781 13.648438 C 25.117188 13.285156 25.34375 12.648438 25.359375 11.699219 L 14.066406 5.21875 C 13.894531 5.121094 13.835938 4.90625 13.933594 4.742188 C 14.03125 4.574219 14.25 4.515625 14.417969 4.613281 L 25.886719 11.191406 C 25.996094 11.253906 26.0625 11.367188 26.066406 11.492188 C 26.082031 12.777344 25.773438 13.660156 25.121094 14.191406 C 24.644531 14.578125 24 14.769531 23.152344 14.769531 " fill-opacity="1" fill-rule="nonzero"/><path fill="#231f20" d="M 23.226562 32.828125 C 22.664062 32.828125 22.003906 32.746094 21.238281 32.582031 C 21.046875 32.542969 20.925781 32.355469 20.96875 32.164062 C 21.007812 31.976562 21.199219 31.855469 21.386719 31.898438 C 23.046875 32.253906 24.136719 32.199219 24.710938 31.730469 C 25.160156 31.367188 25.371094 30.691406 25.359375 29.671875 L 25.359375 11.496094 C 25.359375 11.300781 25.515625 11.144531 25.710938 11.144531 C 25.90625 11.144531 26.066406 11.300781 26.066406 11.496094 L 26.066406 29.667969 C 26.082031 30.910156 25.785156 31.765625 25.160156 32.273438 C 24.699219 32.644531 24.070312 32.828125 23.226562 32.828125 " fill-opacity="1" fill-rule="nonzero"/><path fill="#231f20" d="M 23.511719 13.128906 C 23.453125 13.128906 23.394531 13.113281 23.335938 13.082031 L 12.660156 7.003906 C 12.492188 6.910156 12.433594 6.695312 12.53125 6.527344 C 12.628906 6.359375 12.84375 6.300781 13.011719 6.398438 L 23.6875 12.472656 C 23.859375 12.570312 23.917969 12.785156 23.820312 12.953125 C 23.753906 13.066406 23.636719 13.128906 23.511719 13.128906 " fill-opacity="1" fill-rule="nonzero"/><g clip-path="url(#id3)"><path fill="#231f20" d="M 27.746094 12.15625 C 27.199219 12.15625 26.574219 12.078125 25.851562 11.921875 C 25.660156 11.882812 25.539062 11.695312 25.578125 11.503906 C 25.621094 11.316406 25.808594 11.195312 26 11.238281 C 27.605469 11.582031 28.675781 11.515625 29.265625 11.035156 C 29.710938 10.671875 29.933594 10.035156 29.953125 9.085938 L 18.65625 2.605469 C 18.488281 2.511719 18.429688 2.296875 18.527344 2.128906 C 18.625 1.960938 18.839844 1.902344 19.011719 2 L 30.480469 8.578125 C 30.589844 8.640625 30.65625 8.753906 30.65625 8.878906 C 30.675781 10.164062 30.363281 11.046875 29.714844 11.578125 C 29.238281 11.964844 28.59375 12.15625 27.746094 12.15625 " fill-opacity="1" fill-rule="nonzero"/></g><g clip-path="url(#id4)"><path fill="#231f20" d="M 27.820312 30.214844 C 27.257812 30.214844 26.597656 30.132812 25.832031 29.96875 C 25.640625 29.929688 25.519531 29.742188 25.5625 29.554688 C 25.601562 29.363281 25.789062 29.242188 25.980469 29.285156 C 27.640625 29.640625 28.726562 29.585938 29.304688 29.117188 C 29.753906 28.753906 29.964844 28.082031 29.953125 27.0625 L 29.953125 8.882812 C 29.953125 8.6875 30.109375 8.53125 30.304688 8.53125 C 30.5 8.53125 30.65625 8.6875 30.65625 8.882812 L 30.65625 27.054688 C 30.671875 28.300781 30.375 29.152344 29.75 29.660156 C 29.292969 30.03125 28.664062 30.214844 27.820312 30.214844 " fill-opacity="1" fill-rule="nonzero"/></g><path fill="#231f20" d="M 28.105469 10.515625 C 28.046875 10.515625 27.984375 10.5 27.929688 10.46875 L 17.253906 4.394531 C 17.085938 4.296875 17.027344 4.082031 17.125 3.914062 C 17.21875 3.746094 17.4375 3.6875 17.605469 3.785156 L 28.28125 9.859375 C 28.449219 9.957031 28.507812 10.171875 28.410156 10.339844 C 28.347656 10.453125 28.226562 10.515625 28.105469 10.515625 " fill-opacity="1" fill-rule="nonzero"/><g fill="#231f20" fill-opacity="1"><g transform="translate(36.509577, 26.975739)"><g><path d="M 8.785156 -3.199219 C 8.785156 -4.011719 8.582031 -4.707031 8.191406 -5.246094 C 7.785156 -5.789062 7.242188 -6.160156 6.582031 -6.347656 C 6.972656 -6.515625 7.3125 -6.820312 7.566406 -7.277344 C 7.683594 -7.480469 7.769531 -7.683594 7.835938 -7.902344 C 7.902344 -8.125 7.9375 -8.429688 7.9375 -8.816406 C 7.9375 -9.191406 7.835938 -9.578125 7.667969 -9.953125 C 7.160156 -10.984375 6.058594 -11.507812 4.382812 -11.507812 L 1.269531 -11.507812 L 1.269531 0 L 4.789062 0 C 5.957031 0 6.886719 -0.253906 7.597656 -0.796875 C 7.953125 -1.066406 8.242188 -1.421875 8.460938 -1.863281 C 8.664062 -2.285156 8.785156 -2.726562 8.785156 -3.199219 Z M 6.753906 -8.632812 C 6.753906 -8.003906 6.566406 -7.546875 6.195312 -7.242188 C 5.820312 -6.9375 5.332031 -6.785156 4.722656 -6.785156 L 2.453125 -6.785156 L 2.453125 -10.375 L 4.382812 -10.375 C 5.957031 -10.375 6.753906 -9.78125 6.753906 -8.632812 Z M 7.597656 -3.4375 C 7.597656 -2.742188 7.363281 -2.183594 6.886719 -1.761719 C 6.429688 -1.335938 5.839844 -1.132812 5.128906 -1.132812 L 2.453125 -1.132812 L 2.453125 -5.601562 L 5.3125 -5.601562 C 5.90625 -5.601562 6.429688 -5.398438 6.886719 -4.992188 C 7.089844 -4.808594 7.261719 -4.585938 7.394531 -4.332031 C 7.53125 -4.0625 7.597656 -3.773438 7.597656 -3.4375 Z M 7.597656 -3.4375 "/></g></g></g><g fill="#231f20" fill-opacity="1"><g transform="translate(45.63094, 26.975739)"><g><path d="M 11.40625 -5.789062 C 11.40625 -4.46875 10.933594 -3.351562 10.019531 -2.4375 C 9.089844 -1.507812 7.972656 -1.050781 6.667969 -1.050781 C 5.363281 -1.050781 4.25 -1.507812 3.335938 -2.4375 C 2.402344 -3.351562 1.945312 -4.46875 1.945312 -5.789062 C 1.945312 -7.074219 2.402344 -8.191406 3.335938 -9.121094 C 4.25 -10.035156 5.363281 -10.511719 6.667969 -10.511719 C 7.972656 -10.511719 9.089844 -10.035156 10.019531 -9.121094 C 10.933594 -8.191406 11.40625 -7.074219 11.40625 -5.789062 Z M 12.59375 -5.789062 C 12.59375 -6.601562 12.421875 -7.363281 12.117188 -8.089844 C 11.8125 -8.800781 11.390625 -9.425781 10.847656 -9.96875 C 10.308594 -10.492188 9.679688 -10.917969 8.96875 -11.222656 C 8.242188 -11.527344 7.480469 -11.695312 6.667969 -11.695312 C 5.855469 -11.695312 5.078125 -11.527344 4.367188 -11.222656 C 3.65625 -10.917969 3.03125 -10.492188 2.488281 -9.96875 C 1.945312 -9.425781 1.523438 -8.800781 1.21875 -8.089844 C 0.914062 -7.363281 0.761719 -6.601562 0.761719 -5.789062 C 0.761719 -4.976562 0.914062 -4.199219 1.21875 -3.488281 C 1.523438 -2.757812 1.945312 -2.132812 2.488281 -1.589844 C 3.03125 -1.050781 3.65625 -0.625 4.367188 -0.320312 C 5.078125 -0.015625 5.855469 0.136719 6.667969 0.136719 C 7.480469 0.136719 8.242188 -0.015625 8.96875 -0.320312 C 9.679688 -0.625 10.308594 -1.050781 10.847656 -1.589844 C 11.390625 -2.132812 11.8125 -2.757812 12.117188 -3.488281 C 12.421875 -4.199219 12.59375 -4.976562 12.59375 -5.789062 Z M 12.59375 -5.789062 "/></g></g></g><g fill="#231f20" fill-opacity="1"><g transform="translate(58.982984, 26.975739)"><g><path d="M 11.40625 -5.789062 C 11.40625 -4.46875 10.933594 -3.351562 10.019531 -2.4375 C 9.089844 -1.507812 7.972656 -1.050781 6.667969 -1.050781 C 5.363281 -1.050781 4.25 -1.507812 3.335938 -2.4375 C 2.402344 -3.351562 1.945312 -4.46875 1.945312 -5.789062 C 1.945312 -7.074219 2.402344 -8.191406 3.335938 -9.121094 C 4.25 -10.035156 5.363281 -10.511719 6.667969 -10.511719 C 7.972656 -10.511719 9.089844 -10.035156 10.019531 -9.121094 C 10.933594 -8.191406 11.40625 -7.074219 11.40625 -5.789062 Z M 12.59375 -5.789062 C 12.59375 -6.601562 12.421875 -7.363281 12.117188 -8.089844 C 11.8125 -8.800781 11.390625 -9.425781 10.847656 -9.96875 C 10.308594 -10.492188 9.679688 -10.917969 8.96875 -11.222656 C 8.242188 -11.527344 7.480469 -11.695312 6.667969 -11.695312 C 5.855469 -11.695312 5.078125 -11.527344 4.367188 -11.222656 C 3.65625 -10.917969 3.03125 -10.492188 2.488281 -9.96875 C 1.945312 -9.425781 1.523438 -8.800781 1.21875 -8.089844 C 0.914062 -7.363281 0.761719 -6.601562 0.761719 -5.789062 C 0.761719 -4.976562 0.914062 -4.199219 1.21875 -3.488281 C 1.523438 -2.757812 1.945312 -2.132812 2.488281 -1.589844 C 3.03125 -1.050781 3.65625 -0.625 4.367188 -0.320312 C 5.078125 -0.015625 5.855469 0.136719 6.667969 0.136719 C 7.480469 0.136719 8.242188 -0.015625 8.96875 -0.320312 C 9.679688 -0.625 10.308594 -1.050781 10.847656 -1.589844 C 11.390625 -2.132812 11.8125 -2.757812 12.117188 -3.488281 C 12.421875 -4.199219 12.59375 -4.976562 12.59375 -5.789062 Z M 12.59375 -5.789062 "/></g></g></g><g fill="#231f20" fill-opacity="1"><g transform="translate(72.335029, 26.975739)"><g><path d="M 2.453125 0 L 2.453125 -5.398438 L 6.328125 0 L 7.851562 0 L 3.621094 -5.753906 L 7.851562 -11.507812 L 6.328125 -11.507812 L 2.453125 -6.09375 L 2.453125 -11.507812 L 1.269531 -11.507812 L 1.269531 0 Z M 2.453125 0 "/></g></g></g><g fill="#231f20" fill-opacity="1"><g transform="translate(80.356406, 26.975739)"><g/></g></g><g fill="#231f20" fill-opacity="1"><g transform="translate(84.925552, 26.975739)"><g><path d="M 4.453125 -5.839844 L 6.972656 -2.605469 C 6.804688 -2.4375 6.617188 -2.25 6.414062 -2.066406 C 5.667969 -1.355469 4.976562 -1.015625 4.367188 -1.015625 C 3.792969 -1.015625 3.285156 -1.234375 2.878906 -1.691406 C 2.472656 -2.132812 2.269531 -2.640625 2.269531 -3.214844 C 2.269531 -3.691406 2.539062 -4.199219 3.097656 -4.757812 C 3.351562 -5.011719 3.792969 -5.363281 4.453125 -5.839844 Z M 4.351562 -7.71875 C 3.84375 -8.242188 3.605469 -8.734375 3.605469 -9.242188 C 3.605469 -9.730469 3.742188 -10.085938 4.027344 -10.324219 C 4.300781 -10.542969 4.621094 -10.644531 4.960938 -10.628906 C 5.296875 -10.613281 5.617188 -10.492188 5.90625 -10.257812 C 6.175781 -10.019531 6.328125 -9.679688 6.328125 -9.273438 C 6.328125 -8.851562 6.144531 -8.460938 5.789062 -8.105469 C 5.617188 -7.9375 5.449219 -7.800781 5.265625 -7.667969 C 5.078125 -7.53125 4.910156 -7.414062 4.738281 -7.292969 C 4.605469 -7.429688 4.484375 -7.582031 4.351562 -7.71875 Z M 10.070312 -4.484375 L 9.105469 -5.128906 L 8.460938 -4.316406 C 8.242188 -4.046875 8.023438 -3.773438 7.800781 -3.503906 L 5.433594 -6.53125 C 5.636719 -6.703125 5.871094 -6.871094 6.109375 -7.074219 C 6.988281 -7.800781 7.429688 -8.546875 7.429688 -9.292969 C 7.429688 -9.984375 7.191406 -10.5625 6.71875 -11.019531 C 6.261719 -11.457031 5.6875 -11.679688 4.976562 -11.679688 C 4.230469 -11.679688 3.621094 -11.441406 3.183594 -10.96875 C 2.726562 -10.492188 2.503906 -9.902344 2.503906 -9.191406 C 2.503906 -8.480469 2.910156 -7.648438 3.722656 -6.71875 C 3.386719 -6.464844 3.046875 -6.226562 2.742188 -5.992188 C 1.640625 -5.195312 1.101562 -4.230469 1.101562 -3.132812 C 1.101562 -2.167969 1.40625 -1.371094 2.046875 -0.726562 C 2.351562 -0.421875 2.707031 -0.203125 3.113281 -0.0351562 C 3.519531 0.136719 3.996094 0.203125 4.519531 0.203125 C 5.0625 0.203125 5.652344 0 6.347656 -0.441406 C 6.703125 -0.644531 7.140625 -1.03125 7.71875 -1.609375 L 8.96875 0.0351562 L 10.527344 0 L 8.546875 -2.589844 C 9.394531 -3.605469 9.902344 -4.25 10.070312 -4.484375 Z M 10.070312 -4.484375 "/></g></g></g><g fill="#231f20" fill-opacity="1"><g transform="translate(96.585321, 26.975739)"><g/></g></g><g fill="#231f20" fill-opacity="1"><g transform="translate(101.154467, 26.975739)"><g><path d="M 2.453125 -5.6875 L 2.453125 -10.375 L 5.128906 -10.375 C 5.820312 -10.375 6.378906 -10.15625 6.804688 -9.714844 C 7.210938 -9.273438 7.429688 -8.734375 7.429688 -8.054688 C 7.429688 -7.378906 7.210938 -6.820312 6.769531 -6.363281 C 6.328125 -5.90625 5.789062 -5.6875 5.128906 -5.6875 Z M 8.613281 -8.039062 C 8.613281 -9.019531 8.242188 -9.867188 7.53125 -10.527344 C 6.835938 -11.171875 5.972656 -11.507812 4.960938 -11.507812 L 1.269531 -11.507812 L 1.269531 0 L 2.453125 0 L 2.453125 -4.554688 L 3.824219 -4.554688 L 7.210938 0 L 8.800781 0 L 5.246094 -4.554688 C 6.144531 -4.605469 6.90625 -4.925781 7.53125 -5.515625 C 8.242188 -6.175781 8.613281 -7.023438 8.613281 -8.039062 Z M 8.613281 -8.039062 "/></g></g></g><g fill="#231f20" fill-opacity="1"><g transform="translate(110.360438, 26.975739)"><g><path d="M 8.105469 0 L 8.105469 -1.101562 L 2.453125 -1.101562 L 2.453125 -5.195312 L 7.9375 -5.195312 L 7.9375 -6.3125 L 2.453125 -6.3125 L 2.453125 -10.410156 L 8.105469 -10.410156 L 8.105469 -11.507812 L 1.269531 -11.507812 L 1.269531 0 Z M 8.105469 0 "/></g></g></g><g fill="#231f20" fill-opacity="1"><g transform="translate(119.735641, 26.975739)"><g><path d="M 3.132812 -4.230469 L 5.230469 -9.527344 L 7.3125 -4.230469 Z M 10.273438 0 L 5.230469 -12.304688 L 0.167969 0 L 1.457031 0 L 2.691406 -3.132812 L 7.75 -3.132812 L 8.988281 0 Z M 10.273438 0 "/></g></g></g><g fill="#231f20" fill-opacity="1"><g transform="translate(130.176969, 26.975739)"><g><path d="M 10.207031 -5.753906 C 10.207031 -6.582031 10.035156 -7.34375 9.730469 -8.054688 C 9.425781 -8.765625 9.003906 -9.375 8.480469 -9.882812 C 7.9375 -10.390625 7.3125 -10.78125 6.601562 -11.070312 C 5.871094 -11.355469 5.09375 -11.507812 4.28125 -11.507812 L 1.269531 -11.507812 L 1.269531 0 L 4.28125 0 C 5.09375 0 5.871094 -0.136719 6.601562 -0.421875 C 7.3125 -0.710938 7.9375 -1.117188 8.480469 -1.625 C 9.003906 -2.132812 9.425781 -2.726562 9.730469 -3.4375 C 10.035156 -4.148438 10.207031 -4.910156 10.207031 -5.753906 Z M 9.054688 -5.753906 C 9.054688 -4.433594 8.582031 -3.335938 7.667969 -2.472656 C 6.753906 -1.609375 5.636719 -1.183594 4.316406 -1.183594 L 2.453125 -1.183594 L 2.453125 -10.324219 L 4.316406 -10.324219 C 5.636719 -10.324219 6.753906 -9.882812 7.667969 -9.039062 C 8.582031 -8.15625 9.054688 -7.058594 9.054688 -5.753906 Z M 9.054688 -5.753906 "/></g></g></g></svg>