<svg xmlns="http://www.w3.org/2000/svg" xmlns:xlink="http://www.w3.org/1999/xlink" width="400" zoomAndPan="magnify" viewBox="0 0 300 149.999998" height="200" preserveAspectRatio="xMidYMid meet" version="1.0"><defs><g/><clipPath id="id1"><path d="M 3.066406 39 L 54 39 L 54 143 L 3.066406 143 Z M 3.066406 39 " clip-rule="nonzero"/></clipPath><clipPath id="id2"><path d="M 50 55 L 72 55 L 72 143.945312 L 50 143.945312 Z M 50 55 " clip-rule="nonzero"/></clipPath><clipPath id="id3"><path d="M 58 6.46875 L 108.371094 6.46875 L 108.371094 49 L 58 49 Z M 58 6.46875 " clip-rule="nonzero"/></clipPath><clipPath id="id4"><path d="M 87 33 L 108.371094 33 L 108.371094 123 L 87 123 Z M 87 33 " clip-rule="nonzero"/></clipPath></defs><g clip-path="url(#id1)"><path fill="#231f20" d="M 5.992188 113.496094 L 50.375 139.046875 L 50.445312 68.410156 L 5.992188 43.175781 Z M 51.800781 142.960938 C 51.558594 142.960938 51.3125 142.898438 51.09375 142.773438 L 3.851562 115.574219 C 3.40625 115.320312 3.132812 114.84375 3.132812 114.328125 L 3.132812 40.714844 C 3.132812 40.203125 3.402344 39.730469 3.839844 39.472656 C 4.28125 39.214844 4.820312 39.210938 5.265625 39.460938 L 52.578125 66.320312 C 53.027344 66.574219 53.304688 67.054688 53.304688 67.570312 L 53.230469 141.527344 C 53.230469 142.039062 52.960938 142.511719 52.519531 142.769531 C 52.296875 142.898438 52.050781 142.960938 51.800781 142.960938 " fill-opacity="1" fill-rule="nonzero"/></g><path fill="#231f20" d="M 59.246094 69.929688 C 57.042969 69.929688 54.503906 69.613281 51.574219 68.976562 C 50.800781 68.808594 50.3125 68.042969 50.476562 67.269531 C 50.644531 66.492188 51.40625 65.996094 52.175781 66.167969 C 58.683594 67.578125 63.015625 67.308594 65.414062 65.335938 C 67.210938 63.859375 68.121094 61.242188 68.183594 57.351562 L 22.445312 30.804688 C 21.761719 30.40625 21.527344 29.527344 21.921875 28.839844 C 22.316406 28.152344 23.191406 27.917969 23.875 28.316406 L 70.328125 55.277344 C 70.765625 55.53125 71.039062 55.996094 71.042969 56.503906 C 71.109375 61.777344 69.859375 65.394531 67.222656 67.5625 C 65.292969 69.148438 62.691406 69.929688 59.246094 69.929688 " fill-opacity="1" fill-rule="nonzero"/><g clip-path="url(#id2)"><path fill="#231f20" d="M 59.554688 143.941406 C 57.269531 143.941406 54.601562 143.605469 51.5 142.929688 C 50.730469 142.761719 50.238281 142 50.40625 141.222656 C 50.570312 140.445312 51.332031 139.953125 52.105469 140.121094 C 58.824219 141.582031 63.230469 141.355469 65.566406 139.4375 C 67.378906 137.945312 68.238281 135.191406 68.1875 131.007812 L 68.1875 56.519531 C 68.1875 55.726562 68.824219 55.085938 69.613281 55.085938 C 70.402344 55.085938 71.042969 55.726562 71.042969 56.519531 L 71.042969 130.992188 C 71.105469 136.085938 69.90625 139.582031 67.375 141.664062 C 65.519531 143.1875 62.964844 143.941406 59.554688 143.941406 " fill-opacity="1" fill-rule="nonzero"/></g><path fill="#231f20" d="M 60.707031 63.210938 C 60.46875 63.210938 60.222656 63.148438 60 63.019531 L 16.761719 38.121094 C 16.078125 37.730469 15.839844 36.851562 16.234375 36.160156 C 16.625 35.472656 17.5 35.234375 18.183594 35.628906 L 61.417969 60.527344 C 62.105469 60.921875 62.34375 61.800781 61.949219 62.488281 C 61.6875 62.953125 61.203125 63.210938 60.707031 63.210938 " fill-opacity="1" fill-rule="nonzero"/><path fill="#231f20" d="M 77.84375 59.183594 C 75.644531 59.183594 73.101562 58.863281 70.171875 58.226562 C 69.402344 58.058594 68.910156 57.292969 69.078125 56.519531 C 69.246094 55.742188 70.003906 55.25 70.777344 55.417969 C 77.285156 56.832031 81.613281 56.558594 84.011719 54.585938 C 85.808594 53.109375 86.71875 50.492188 86.78125 46.601562 L 41.042969 20.054688 C 40.359375 19.65625 40.125 18.777344 40.523438 18.09375 C 40.917969 17.40625 41.789062 17.167969 42.472656 17.566406 L 88.929688 44.527344 C 89.363281 44.78125 89.636719 45.246094 89.644531 45.753906 C 89.707031 51.027344 88.457031 54.644531 85.820312 56.8125 C 83.894531 58.398438 81.289062 59.183594 77.84375 59.183594 " fill-opacity="1" fill-rule="nonzero"/><path fill="#231f20" d="M 78.152344 133.191406 C 75.871094 133.191406 73.199219 132.855469 70.097656 132.179688 C 69.328125 132.011719 68.835938 131.25 69.003906 130.472656 C 69.171875 129.695312 69.933594 129.207031 70.703125 129.371094 C 77.425781 130.832031 81.828125 130.609375 84.164062 128.6875 C 85.980469 127.195312 86.835938 124.441406 86.785156 120.261719 L 86.785156 45.773438 C 86.785156 44.976562 87.421875 44.335938 88.214844 44.335938 C 89.003906 44.335938 89.644531 44.976562 89.644531 45.773438 L 89.644531 120.242188 C 89.707031 125.335938 88.507812 128.832031 85.972656 130.914062 C 84.117188 132.4375 81.566406 133.191406 78.152344 133.191406 " fill-opacity="1" fill-rule="nonzero"/><path fill="#231f20" d="M 79.308594 52.460938 C 79.066406 52.460938 78.820312 52.402344 78.597656 52.273438 L 35.363281 27.375 C 34.675781 26.980469 34.441406 26.101562 34.832031 25.414062 C 35.222656 24.722656 36.097656 24.484375 36.785156 24.878906 L 80.019531 49.777344 C 80.703125 50.171875 80.941406 51.050781 80.550781 51.738281 C 80.285156 52.203125 79.800781 52.460938 79.308594 52.460938 " fill-opacity="1" fill-rule="nonzero"/><g clip-path="url(#id3)"><path fill="#231f20" d="M 96.445312 48.476562 C 94.242188 48.476562 91.699219 48.15625 88.769531 47.519531 C 88 47.351562 87.507812 46.589844 87.675781 45.8125 C 87.84375 45.035156 88.601562 44.542969 89.375 44.710938 C 95.882812 46.125 100.210938 45.851562 102.613281 43.882812 C 104.410156 42.402344 105.316406 39.789062 105.382812 35.894531 L 59.644531 9.347656 C 58.960938 8.953125 58.726562 8.074219 59.121094 7.386719 C 59.515625 6.699219 60.390625 6.464844 61.074219 6.859375 L 107.527344 33.824219 C 107.964844 34.074219 108.234375 34.542969 108.242188 35.046875 C 108.308594 40.320312 107.058594 43.941406 104.421875 46.105469 C 102.492188 47.691406 99.886719 48.476562 96.445312 48.476562 " fill-opacity="1" fill-rule="nonzero"/></g><g clip-path="url(#id4)"><path fill="#231f20" d="M 96.75 122.488281 C 94.46875 122.488281 91.800781 122.148438 88.699219 121.476562 C 87.925781 121.308594 87.4375 120.542969 87.601562 119.769531 C 87.769531 118.992188 88.53125 118.5 89.300781 118.667969 C 96.023438 120.125 100.425781 119.902344 102.761719 117.984375 C 104.578125 116.492188 105.433594 113.734375 105.382812 109.554688 L 105.382812 35.066406 C 105.382812 34.273438 106.023438 33.628906 106.8125 33.628906 C 107.601562 33.628906 108.242188 34.273438 108.242188 35.066406 L 108.242188 109.539062 C 108.304688 114.628906 107.105469 118.128906 104.574219 120.207031 C 102.71875 121.730469 100.164062 122.488281 96.75 122.488281 " fill-opacity="1" fill-rule="nonzero"/></g><path fill="#231f20" d="M 97.90625 41.757812 C 97.664062 41.757812 97.421875 41.695312 97.195312 41.566406 L 53.960938 16.667969 C 53.277344 16.273438 53.039062 15.394531 53.429688 14.707031 C 53.824219 14.019531 54.695312 13.78125 55.382812 14.175781 L 98.617188 39.074219 C 99.304688 39.46875 99.539062 40.34375 99.148438 41.035156 C 98.882812 41.496094 98.402344 41.757812 97.90625 41.757812 " fill-opacity="1" fill-rule="nonzero"/><g fill="#000000" fill-opacity="1"><g transform="translate(123.296779, 75.311594)"><g><path d="M 13.96875 -5.085938 C 13.96875 -6.378906 13.644531 -7.480469 13.023438 -8.34375 C 12.378906 -9.203125 11.519531 -9.796875 10.46875 -10.09375 C 11.085938 -10.359375 11.625 -10.84375 12.03125 -11.570312 C 12.21875 -11.894531 12.351562 -12.21875 12.460938 -12.566406 C 12.566406 -12.917969 12.621094 -13.402344 12.621094 -14.019531 C 12.621094 -14.613281 12.460938 -15.230469 12.191406 -15.824219 C 11.382812 -17.464844 9.632812 -18.300781 6.96875 -18.300781 L 2.019531 -18.300781 L 2.019531 0 L 7.617188 0 C 9.472656 0 10.953125 -0.402344 12.082031 -1.265625 C 12.648438 -1.695312 13.105469 -2.261719 13.457031 -2.960938 C 13.777344 -3.632812 13.96875 -4.332031 13.96875 -5.085938 Z M 10.738281 -13.726562 C 10.738281 -12.730469 10.441406 -12.003906 9.851562 -11.519531 C 9.257812 -11.035156 8.476562 -10.792969 7.507812 -10.792969 L 3.902344 -10.792969 L 3.902344 -16.496094 L 6.96875 -16.496094 C 9.472656 -16.496094 10.738281 -15.554688 10.738281 -13.726562 Z M 12.082031 -5.464844 C 12.082031 -4.359375 11.707031 -3.472656 10.953125 -2.796875 C 10.226562 -2.125 9.285156 -1.804688 8.152344 -1.804688 L 3.902344 -1.804688 L 3.902344 -8.90625 L 8.449219 -8.90625 C 9.390625 -8.90625 10.226562 -8.585938 10.953125 -7.9375 C 11.277344 -7.644531 11.546875 -7.292969 11.761719 -6.890625 C 11.976562 -6.457031 12.082031 -6 12.082031 -5.464844 Z M 12.082031 -5.464844 "/></g></g></g><g fill="#000000" fill-opacity="1"><g transform="translate(137.801117, 75.311594)"><g><path d="M 18.136719 -9.203125 C 18.136719 -7.105469 17.386719 -5.328125 15.933594 -3.875 C 14.453125 -2.394531 12.675781 -1.667969 10.601562 -1.667969 C 8.53125 -1.667969 6.753906 -2.394531 5.300781 -3.875 C 3.820312 -5.328125 3.09375 -7.105469 3.09375 -9.203125 C 3.09375 -11.25 3.820312 -13.023438 5.300781 -14.503906 C 6.753906 -15.957031 8.53125 -16.710938 10.601562 -16.710938 C 12.675781 -16.710938 14.453125 -15.957031 15.933594 -14.503906 C 17.386719 -13.023438 18.136719 -11.25 18.136719 -9.203125 Z M 20.023438 -9.203125 C 20.023438 -10.496094 19.753906 -11.707031 19.269531 -12.863281 C 18.785156 -13.992188 18.113281 -14.988281 17.25 -15.851562 C 16.390625 -16.683594 15.394531 -17.359375 14.261719 -17.84375 C 13.105469 -18.328125 11.894531 -18.597656 10.601562 -18.597656 C 9.3125 -18.597656 8.074219 -18.328125 6.941406 -17.84375 C 5.8125 -17.359375 4.816406 -16.683594 3.957031 -15.851562 C 3.09375 -14.988281 2.421875 -13.992188 1.9375 -12.863281 C 1.453125 -11.707031 1.210938 -10.496094 1.210938 -9.203125 C 1.210938 -7.910156 1.453125 -6.675781 1.9375 -5.542969 C 2.421875 -4.386719 3.09375 -3.390625 3.957031 -2.53125 C 4.816406 -1.667969 5.8125 -0.996094 6.941406 -0.511719 C 8.074219 -0.0273438 9.3125 0.214844 10.601562 0.214844 C 11.894531 0.214844 13.105469 -0.0273438 14.261719 -0.511719 C 15.394531 -0.996094 16.390625 -1.667969 17.25 -2.53125 C 18.113281 -3.390625 18.785156 -4.386719 19.269531 -5.542969 C 19.753906 -6.675781 20.023438 -7.910156 20.023438 -9.203125 Z M 20.023438 -9.203125 "/></g></g></g><g fill="#000000" fill-opacity="1"><g transform="translate(159.032882, 75.311594)"><g><path d="M 18.136719 -9.203125 C 18.136719 -7.105469 17.386719 -5.328125 15.933594 -3.875 C 14.453125 -2.394531 12.675781 -1.667969 10.601562 -1.667969 C 8.53125 -1.667969 6.753906 -2.394531 5.300781 -3.875 C 3.820312 -5.328125 3.09375 -7.105469 3.09375 -9.203125 C 3.09375 -11.25 3.820312 -13.023438 5.300781 -14.503906 C 6.753906 -15.957031 8.53125 -16.710938 10.601562 -16.710938 C 12.675781 -16.710938 14.453125 -15.957031 15.933594 -14.503906 C 17.386719 -13.023438 18.136719 -11.25 18.136719 -9.203125 Z M 20.023438 -9.203125 C 20.023438 -10.496094 19.753906 -11.707031 19.269531 -12.863281 C 18.785156 -13.992188 18.113281 -14.988281 17.25 -15.851562 C 16.390625 -16.683594 15.394531 -17.359375 14.261719 -17.84375 C 13.105469 -18.328125 11.894531 -18.597656 10.601562 -18.597656 C 9.3125 -18.597656 8.074219 -18.328125 6.941406 -17.84375 C 5.8125 -17.359375 4.816406 -16.683594 3.957031 -15.851562 C 3.09375 -14.988281 2.421875 -13.992188 1.9375 -12.863281 C 1.453125 -11.707031 1.210938 -10.496094 1.210938 -9.203125 C 1.210938 -7.910156 1.453125 -6.675781 1.9375 -5.542969 C 2.421875 -4.386719 3.09375 -3.390625 3.957031 -2.53125 C 4.816406 -1.667969 5.8125 -0.996094 6.941406 -0.511719 C 8.074219 -0.0273438 9.3125 0.214844 10.601562 0.214844 C 11.894531 0.214844 13.105469 -0.0273438 14.261719 -0.511719 C 15.394531 -0.996094 16.390625 -1.667969 17.25 -2.53125 C 18.113281 -3.390625 18.785156 -4.386719 19.269531 -5.542969 C 19.753906 -6.675781 20.023438 -7.910156 20.023438 -9.203125 Z M 20.023438 -9.203125 "/></g></g></g><g fill="#000000" fill-opacity="1"><g transform="translate(180.264648, 75.311594)"><g><path d="M 3.902344 0 L 3.902344 -8.585938 L 10.066406 0 L 12.488281 0 L 5.757812 -9.148438 L 12.488281 -18.300781 L 10.066406 -18.300781 L 3.902344 -9.6875 L 3.902344 -18.300781 L 2.019531 -18.300781 L 2.019531 0 Z M 3.902344 0 "/></g></g></g><g fill="#000000" fill-opacity="1"><g transform="translate(193.019852, 75.311594)"><g/></g></g><g fill="#000000" fill-opacity="1"><g transform="translate(200.285473, 75.311594)"><g><path d="M 7.078125 -9.285156 L 11.085938 -4.144531 C 10.820312 -3.875 10.523438 -3.578125 10.199219 -3.285156 C 9.015625 -2.152344 7.910156 -1.613281 6.941406 -1.613281 C 6.027344 -1.613281 5.222656 -1.964844 4.574219 -2.691406 C 3.929688 -3.390625 3.605469 -4.199219 3.605469 -5.113281 C 3.605469 -5.867188 4.035156 -6.675781 4.925781 -7.5625 C 5.328125 -7.964844 6.027344 -8.53125 7.078125 -9.285156 Z M 6.917969 -12.273438 C 6.109375 -13.105469 5.730469 -13.886719 5.730469 -14.695312 C 5.730469 -15.472656 5.949219 -16.039062 6.40625 -16.417969 C 6.835938 -16.765625 7.347656 -16.925781 7.886719 -16.902344 C 8.421875 -16.875 8.933594 -16.683594 9.390625 -16.308594 C 9.824219 -15.933594 10.066406 -15.394531 10.066406 -14.746094 C 10.066406 -14.074219 9.769531 -13.457031 9.203125 -12.890625 C 8.933594 -12.621094 8.664062 -12.40625 8.371094 -12.191406 C 8.074219 -11.976562 7.804688 -11.789062 7.535156 -11.597656 C 7.320312 -11.8125 7.132812 -12.054688 6.917969 -12.273438 Z M 16.011719 -7.132812 L 14.476562 -8.152344 L 13.457031 -6.863281 C 13.105469 -6.433594 12.757812 -6 12.40625 -5.570312 L 8.636719 -10.386719 C 8.960938 -10.65625 9.339844 -10.925781 9.714844 -11.25 C 11.113281 -12.40625 11.8125 -13.589844 11.8125 -14.773438 C 11.8125 -15.878906 11.4375 -16.792969 10.683594 -17.519531 C 9.957031 -18.21875 9.042969 -18.570312 7.910156 -18.570312 C 6.726562 -18.570312 5.757812 -18.191406 5.058594 -17.4375 C 4.332031 -16.683594 3.984375 -15.742188 3.984375 -14.613281 C 3.984375 -13.484375 4.628906 -12.164062 5.921875 -10.683594 C 5.382812 -10.28125 4.84375 -9.902344 4.359375 -9.527344 C 2.609375 -8.261719 1.75 -6.726562 1.75 -4.980469 C 1.75 -3.445312 2.234375 -2.179688 3.257812 -1.15625 C 3.742188 -0.671875 4.304688 -0.324219 4.953125 -0.0546875 C 5.597656 0.214844 6.351562 0.324219 7.183594 0.324219 C 8.046875 0.324219 8.988281 0 10.09375 -0.699219 C 10.65625 -1.023438 11.355469 -1.640625 12.273438 -2.554688 L 14.261719 0.0546875 L 16.738281 0 L 13.589844 -4.117188 C 14.9375 -5.730469 15.742188 -6.753906 16.011719 -7.132812 Z M 16.011719 -7.132812 "/></g></g></g><g fill="#000000" fill-opacity="1"><g transform="translate(218.826269, 75.311594)"><g/></g></g><g fill="#000000" fill-opacity="1"><g transform="translate(226.091889, 75.311594)"><g><path d="M 3.902344 -9.042969 L 3.902344 -16.496094 L 8.152344 -16.496094 C 9.257812 -16.496094 10.144531 -16.148438 10.820312 -15.449219 C 11.464844 -14.746094 11.8125 -13.886719 11.8125 -12.808594 C 11.8125 -11.734375 11.464844 -10.84375 10.765625 -10.117188 C 10.066406 -9.390625 9.203125 -9.042969 8.152344 -9.042969 Z M 13.699219 -12.78125 C 13.699219 -14.34375 13.105469 -15.691406 11.976562 -16.738281 C 10.871094 -17.761719 9.5 -18.300781 7.886719 -18.300781 L 2.019531 -18.300781 L 2.019531 0 L 3.902344 0 L 3.902344 -7.238281 L 6.082031 -7.238281 L 11.464844 0 L 13.992188 0 L 8.34375 -7.238281 C 9.769531 -7.320312 10.980469 -7.832031 11.976562 -8.773438 C 13.105469 -9.824219 13.699219 -11.167969 13.699219 -12.78125 Z M 13.699219 -12.78125 "/></g></g></g><g fill="#000000" fill-opacity="1"><g transform="translate(240.730775, 75.311594)"><g><path d="M 12.890625 0 L 12.890625 -1.75 L 3.902344 -1.75 L 3.902344 -8.261719 L 12.621094 -8.261719 L 12.621094 -10.039062 L 3.902344 -10.039062 L 3.902344 -16.550781 L 12.890625 -16.550781 L 12.890625 -18.300781 L 2.019531 -18.300781 L 2.019531 0 Z M 12.890625 0 "/></g></g></g><g fill="#000000" fill-opacity="1"><g transform="translate(255.638757, 75.311594)"><g><path d="M 4.980469 -6.726562 L 8.316406 -15.152344 L 11.625 -6.726562 Z M 16.335938 0 L 8.316406 -19.566406 L 0.269531 0 L 2.3125 0 L 4.277344 -4.980469 L 12.324219 -4.980469 L 14.289062 0 Z M 16.335938 0 "/></g></g></g><g fill="#000000" fill-opacity="1"><g transform="translate(272.242042, 75.311594)"><g><path d="M 16.226562 -9.148438 C 16.226562 -10.46875 15.957031 -11.679688 15.472656 -12.808594 C 14.988281 -13.941406 14.316406 -14.910156 13.484375 -15.714844 C 12.621094 -16.523438 11.625 -17.144531 10.496094 -17.601562 C 9.339844 -18.058594 8.101562 -18.300781 6.808594 -18.300781 L 2.019531 -18.300781 L 2.019531 0 L 6.808594 0 C 8.101562 0 9.339844 -0.214844 10.496094 -0.671875 C 11.625 -1.128906 12.621094 -1.777344 13.484375 -2.582031 C 14.316406 -3.390625 14.988281 -4.332031 15.472656 -5.464844 C 15.957031 -6.59375 16.226562 -7.804688 16.226562 -9.148438 Z M 14.398438 -9.148438 C 14.398438 -7.050781 13.644531 -5.300781 12.191406 -3.929688 C 10.738281 -2.554688 8.960938 -1.882812 6.863281 -1.882812 L 3.902344 -1.882812 L 3.902344 -16.417969 L 6.863281 -16.417969 C 8.960938 -16.417969 10.738281 -15.714844 12.191406 -14.371094 C 13.644531 -12.972656 14.398438 -11.222656 14.398438 -9.148438 Z M 14.398438 -9.148438 "/></g></g></g><g fill="#000000" fill-opacity="1"><g transform="translate(125.938396, 102.357691)"><g><path d="M 7.234375 -2.6875 C 7.234375 -1.820312 6.910156 -1.132812 6.265625 -0.625 C 5.628906 -0.113281 4.785156 0.140625 3.734375 0.140625 C 2.453125 0.140625 1.472656 0 0.796875 -0.28125 L 0.796875 -1 C 1.546875 -0.6875 2.503906 -0.53125 3.671875 -0.53125 C 4.523438 -0.53125 5.203125 -0.722656 5.703125 -1.109375 C 6.210938 -1.503906 6.46875 -2.019531 6.46875 -2.65625 C 6.46875 -3.050781 6.382812 -3.378906 6.21875 -3.640625 C 6.050781 -3.898438 5.773438 -4.132812 5.390625 -4.34375 C 5.015625 -4.5625 4.460938 -4.796875 3.734375 -5.046875 C 2.671875 -5.410156 1.9375 -5.804688 1.53125 -6.234375 C 1.125 -6.660156 0.921875 -7.226562 0.921875 -7.9375 C 0.921875 -8.71875 1.222656 -9.351562 1.828125 -9.84375 C 2.441406 -10.34375 3.234375 -10.59375 4.203125 -10.59375 C 5.179688 -10.59375 6.101562 -10.40625 6.96875 -10.03125 L 6.703125 -9.40625 C 5.835938 -9.769531 5.007812 -9.953125 4.21875 -9.953125 C 3.445312 -9.953125 2.832031 -9.769531 2.375 -9.40625 C 1.914062 -9.050781 1.6875 -8.566406 1.6875 -7.953125 C 1.6875 -7.566406 1.753906 -7.25 1.890625 -7 C 2.035156 -6.757812 2.265625 -6.539062 2.578125 -6.34375 C 2.898438 -6.144531 3.453125 -5.90625 4.234375 -5.625 C 5.046875 -5.34375 5.65625 -5.066406 6.0625 -4.796875 C 6.46875 -4.535156 6.765625 -4.238281 6.953125 -3.90625 C 7.140625 -3.570312 7.234375 -3.164062 7.234375 -2.6875 Z M 7.234375 -2.6875 "/></g></g></g><g fill="#000000" fill-opacity="1"><g transform="translate(133.903339, 102.357691)"><g><path d="M 1.484375 0 L 1.484375 -10.4375 L 2.203125 -10.4375 L 2.203125 0 Z M 1.484375 0 "/></g></g></g><g fill="#000000" fill-opacity="1"><g transform="translate(137.586054, 102.357691)"><g><path d="M 9.0625 0 L 8.328125 0 L 2.15625 -9.265625 L 2.09375 -9.265625 C 2.144531 -8.160156 2.171875 -7.328125 2.171875 -6.765625 L 2.171875 0 L 1.484375 0 L 1.484375 -10.4375 L 2.203125 -10.4375 L 8.390625 -1.1875 L 8.421875 -1.1875 C 8.378906 -2.039062 8.359375 -2.851562 8.359375 -3.625 L 8.359375 -10.4375 L 9.0625 -10.4375 Z M 9.0625 0 "/></g></g></g><g fill="#000000" fill-opacity="1"><g transform="translate(148.127476, 102.357691)"><g><path d="M 5.9375 -9.9375 C 4.625 -9.9375 3.59375 -9.515625 2.84375 -8.671875 C 2.09375 -7.835938 1.71875 -6.691406 1.71875 -5.234375 C 1.71875 -3.742188 2.070312 -2.585938 2.78125 -1.765625 C 3.488281 -0.941406 4.5 -0.53125 5.8125 -0.53125 C 6.695312 -0.53125 7.503906 -0.640625 8.234375 -0.859375 L 8.234375 -0.21875 C 7.546875 0.0195312 6.6875 0.140625 5.65625 0.140625 C 4.1875 0.140625 3.03125 -0.332031 2.1875 -1.28125 C 1.34375 -2.226562 0.921875 -3.550781 0.921875 -5.25 C 0.921875 -6.3125 1.117188 -7.242188 1.515625 -8.046875 C 1.921875 -8.859375 2.5 -9.484375 3.25 -9.921875 C 4.007812 -10.367188 4.890625 -10.59375 5.890625 -10.59375 C 6.910156 -10.59375 7.820312 -10.398438 8.625 -10.015625 L 8.328125 -9.359375 C 7.566406 -9.742188 6.769531 -9.9375 5.9375 -9.9375 Z M 5.9375 -9.9375 "/></g></g></g><g fill="#000000" fill-opacity="1"><g transform="translate(157.205797, 102.357691)"><g><path d="M 7.1875 0 L 1.484375 0 L 1.484375 -10.4375 L 7.1875 -10.4375 L 7.1875 -9.765625 L 2.203125 -9.765625 L 2.203125 -5.8125 L 6.90625 -5.8125 L 6.90625 -5.15625 L 2.203125 -5.15625 L 2.203125 -0.671875 L 7.1875 -0.671875 Z M 7.1875 0 "/></g></g></g><g fill="#000000" fill-opacity="1"><g transform="translate(165.270659, 102.357691)"><g/></g></g><g fill="#000000" fill-opacity="1"><g transform="translate(169.067567, 102.357691)"><g><path d="M 7.34375 0 L 0.8125 0 L 0.8125 -0.625 L 3.578125 -3.53125 C 4.359375 -4.332031 4.90625 -4.945312 5.21875 -5.375 C 5.539062 -5.8125 5.773438 -6.222656 5.921875 -6.609375 C 6.066406 -7.003906 6.140625 -7.414062 6.140625 -7.84375 C 6.140625 -8.46875 5.929688 -8.972656 5.515625 -9.359375 C 5.109375 -9.753906 4.582031 -9.953125 3.9375 -9.953125 C 3.0625 -9.953125 2.226562 -9.632812 1.4375 -9 L 1.046875 -9.484375 C 1.921875 -10.222656 2.890625 -10.59375 3.953125 -10.59375 C 4.859375 -10.59375 5.570312 -10.347656 6.09375 -9.859375 C 6.613281 -9.378906 6.875 -8.710938 6.875 -7.859375 C 6.875 -7.160156 6.695312 -6.488281 6.34375 -5.84375 C 6 -5.207031 5.363281 -4.414062 4.4375 -3.46875 L 1.75 -0.71875 L 1.75 -0.6875 L 7.34375 -0.6875 Z M 7.34375 0 "/></g></g></g><g fill="#000000" fill-opacity="1"><g transform="translate(177.410778, 102.357691)"><g><path d="M 7.53125 -5.25 C 7.53125 -3.414062 7.25 -2.054688 6.6875 -1.171875 C 6.132812 -0.296875 5.289062 0.140625 4.15625 0.140625 C 3.0625 0.140625 2.234375 -0.3125 1.671875 -1.21875 C 1.109375 -2.125 0.828125 -3.46875 0.828125 -5.25 C 0.828125 -7.070312 1.097656 -8.421875 1.640625 -9.296875 C 2.191406 -10.171875 3.03125 -10.609375 4.15625 -10.609375 C 5.257812 -10.609375 6.097656 -10.15625 6.671875 -9.25 C 7.242188 -8.34375 7.53125 -7.007812 7.53125 -5.25 Z M 1.59375 -5.25 C 1.59375 -3.632812 1.800781 -2.4375 2.21875 -1.65625 C 2.644531 -0.882812 3.289062 -0.5 4.15625 -0.5 C 5.050781 -0.5 5.703125 -0.898438 6.109375 -1.703125 C 6.523438 -2.503906 6.734375 -3.6875 6.734375 -5.25 C 6.734375 -6.789062 6.523438 -7.960938 6.109375 -8.765625 C 5.703125 -9.566406 5.050781 -9.96875 4.15625 -9.96875 C 3.257812 -9.96875 2.609375 -9.566406 2.203125 -8.765625 C 1.796875 -7.960938 1.59375 -6.789062 1.59375 -5.25 Z M 1.59375 -5.25 "/></g></g></g><g fill="#000000" fill-opacity="1"><g transform="translate(185.75399, 102.357691)"><g><path d="M 7.34375 0 L 0.8125 0 L 0.8125 -0.625 L 3.578125 -3.53125 C 4.359375 -4.332031 4.90625 -4.945312 5.21875 -5.375 C 5.539062 -5.8125 5.773438 -6.222656 5.921875 -6.609375 C 6.066406 -7.003906 6.140625 -7.414062 6.140625 -7.84375 C 6.140625 -8.46875 5.929688 -8.972656 5.515625 -9.359375 C 5.109375 -9.753906 4.582031 -9.953125 3.9375 -9.953125 C 3.0625 -9.953125 2.226562 -9.632812 1.4375 -9 L 1.046875 -9.484375 C 1.921875 -10.222656 2.890625 -10.59375 3.953125 -10.59375 C 4.859375 -10.59375 5.570312 -10.347656 6.09375 -9.859375 C 6.613281 -9.378906 6.875 -8.710938 6.875 -7.859375 C 6.875 -7.160156 6.695312 -6.488281 6.34375 -5.84375 C 6 -5.207031 5.363281 -4.414062 4.4375 -3.46875 L 1.75 -0.71875 L 1.75 -0.6875 L 7.34375 -0.6875 Z M 7.34375 0 "/></g></g></g><g fill="#000000" fill-opacity="1"><g transform="translate(194.097201, 102.357691)"><g><path d="M 6.984375 -7.984375 C 6.984375 -7.335938 6.78125 -6.789062 6.375 -6.34375 C 5.96875 -5.90625 5.421875 -5.625 4.734375 -5.5 L 4.734375 -5.453125 C 5.578125 -5.347656 6.21875 -5.082031 6.65625 -4.65625 C 7.09375 -4.226562 7.3125 -3.648438 7.3125 -2.921875 C 7.3125 -1.953125 6.976562 -1.195312 6.3125 -0.65625 C 5.644531 -0.125 4.691406 0.140625 3.453125 0.140625 C 2.390625 0.140625 1.460938 -0.0546875 0.671875 -0.453125 L 0.671875 -1.15625 C 1.066406 -0.945312 1.515625 -0.78125 2.015625 -0.65625 C 2.515625 -0.539062 2.984375 -0.484375 3.421875 -0.484375 C 4.472656 -0.484375 5.257812 -0.695312 5.78125 -1.125 C 6.3125 -1.550781 6.578125 -2.148438 6.578125 -2.921875 C 6.578125 -3.617188 6.304688 -4.148438 5.765625 -4.515625 C 5.234375 -4.890625 4.441406 -5.078125 3.390625 -5.078125 L 2.265625 -5.078125 L 2.265625 -5.765625 L 3.40625 -5.765625 C 4.269531 -5.765625 4.957031 -5.96875 5.46875 -6.375 C 5.976562 -6.789062 6.234375 -7.351562 6.234375 -8.0625 C 6.234375 -8.632812 6.023438 -9.09375 5.609375 -9.4375 C 5.191406 -9.789062 4.648438 -9.96875 3.984375 -9.96875 C 3.472656 -9.96875 3 -9.894531 2.5625 -9.75 C 2.132812 -9.613281 1.65625 -9.367188 1.125 -9.015625 L 0.78125 -9.484375 C 1.1875 -9.828125 1.671875 -10.097656 2.234375 -10.296875 C 2.804688 -10.492188 3.390625 -10.59375 3.984375 -10.59375 C 4.941406 -10.59375 5.679688 -10.363281 6.203125 -9.90625 C 6.722656 -9.445312 6.984375 -8.804688 6.984375 -7.984375 Z M 6.984375 -7.984375 "/></g></g></g></svg>